<mxfile host="app.diagrams.net" modified="2022-03-01T15:34:22.886Z" agent="5.0 (Macintosh)" etag="9TJ65yi9vjtU-y1izh_D" version="16.6.4" type="github">
  <diagram id="-oPLHSMnz3KgT2YxSXNt" name="Page-1">
    <mxGraphModel dx="1426" dy="792" grid="1" gridSize="10" guides="1" tooltips="1" connect="1" arrows="1" fold="1" page="1" pageScale="1" pageWidth="850" pageHeight="1100" math="0" shadow="0">
      <root>
        <mxCell id="0" />
        <mxCell id="1" parent="0" />
        <mxCell id="mG2dedWUTn2DNPqguD1p-1" value="" style="shape=actor;whiteSpace=wrap;html=1;fillColor=#d5e8d4;strokeColor=#82b366;" vertex="1" parent="1">
          <mxGeometry x="340" y="40" width="40" height="60" as="geometry" />
        </mxCell>
        <mxCell id="mG2dedWUTn2DNPqguD1p-2" value="&lt;div&gt;GitHub&lt;/div&gt;&lt;div&gt;(remote repository)&lt;/div&gt;" style="ellipse;shape=cloud;whiteSpace=wrap;html=1;" vertex="1" parent="1">
          <mxGeometry x="270" y="100" width="170" height="107.5" as="geometry" />
        </mxCell>
        <mxCell id="mG2dedWUTn2DNPqguD1p-4" value="&lt;div&gt;RStudio&lt;/div&gt;&lt;div&gt;(local repository)&lt;br&gt;&lt;/div&gt;" style="rounded=1;whiteSpace=wrap;html=1;" vertex="1" parent="1">
          <mxGeometry x="280" y="307.5" width="150" height="60" as="geometry" />
        </mxCell>
        <mxCell id="mG2dedWUTn2DNPqguD1p-8" value="" style="endArrow=classic;html=1;rounded=0;fontSize=17;strokeColor=#CCCCCC;strokeWidth=3;edgeStyle=orthogonalEdgeStyle;elbow=vertical;curved=1;" edge="1" parent="1">
          <mxGeometry relative="1" as="geometry">
            <mxPoint x="270" y="155.05" as="sourcePoint" />
            <mxPoint x="260" y="339.95" as="targetPoint" />
            <Array as="points">
              <mxPoint x="160" y="155" />
              <mxPoint x="160" y="340" />
            </Array>
          </mxGeometry>
        </mxCell>
        <mxCell id="mG2dedWUTn2DNPqguD1p-9" value="Clone" style="edgeLabel;resizable=0;html=1;align=center;verticalAlign=middle;fontSize=17;strokeWidth=3;fillColor=#FFFFFF;" connectable="0" vertex="1" parent="mG2dedWUTn2DNPqguD1p-8">
          <mxGeometry relative="1" as="geometry" />
        </mxCell>
        <mxCell id="mG2dedWUTn2DNPqguD1p-30" value="" style="endArrow=classic;html=1;rounded=0;strokeColor=#CCCCCC;strokeWidth=3;" edge="1" parent="1">
          <mxGeometry relative="1" as="geometry">
            <mxPoint x="354.5" y="292.5" as="sourcePoint" />
            <mxPoint x="354.5" y="220" as="targetPoint" />
          </mxGeometry>
        </mxCell>
        <mxCell id="mG2dedWUTn2DNPqguD1p-31" value="&lt;div style=&quot;font-size: 17px;&quot;&gt;Push&lt;/div&gt;" style="edgeLabel;resizable=0;html=1;align=center;verticalAlign=middle;fontSize=17;" connectable="0" vertex="1" parent="mG2dedWUTn2DNPqguD1p-30">
          <mxGeometry relative="1" as="geometry" />
        </mxCell>
        <mxCell id="mG2dedWUTn2DNPqguD1p-70" value="" style="endArrow=classic;html=1;rounded=0;fontSize=17;strokeColor=#CCCCCC;strokeWidth=3;edgeStyle=orthogonalEdgeStyle;curved=1;" edge="1" parent="1">
          <mxGeometry relative="1" as="geometry">
            <mxPoint x="551.5" y="360" as="sourcePoint" />
            <mxPoint x="600" y="360" as="targetPoint" />
            <Array as="points">
              <mxPoint x="552" y="400" />
              <mxPoint x="600" y="400" />
              <mxPoint x="600" y="360" />
            </Array>
          </mxGeometry>
        </mxCell>
        <mxCell id="mG2dedWUTn2DNPqguD1p-71" value="Commit" style="edgeLabel;resizable=0;html=1;align=center;verticalAlign=middle;fontSize=17;" connectable="0" vertex="1" parent="mG2dedWUTn2DNPqguD1p-70">
          <mxGeometry relative="1" as="geometry" />
        </mxCell>
        <mxCell id="mG2dedWUTn2DNPqguD1p-74" value="" style="group" vertex="1" connectable="0" parent="1">
          <mxGeometry x="450" y="320" width="163" height="23" as="geometry" />
        </mxCell>
        <mxCell id="mG2dedWUTn2DNPqguD1p-58" value="" style="group" vertex="1" connectable="0" parent="mG2dedWUTn2DNPqguD1p-74">
          <mxGeometry width="113" height="23" as="geometry" />
        </mxCell>
        <mxCell id="mG2dedWUTn2DNPqguD1p-59" value="" style="ellipse;whiteSpace=wrap;html=1;aspect=fixed;fillColor=#d5e8d4;strokeColor=#82b366;strokeWidth=3;" vertex="1" parent="mG2dedWUTn2DNPqguD1p-58">
          <mxGeometry width="23" height="23" as="geometry" />
        </mxCell>
        <mxCell id="mG2dedWUTn2DNPqguD1p-60" value="" style="ellipse;whiteSpace=wrap;html=1;aspect=fixed;fillColor=#d5e8d4;strokeColor=#82b366;strokeWidth=3;" vertex="1" parent="mG2dedWUTn2DNPqguD1p-58">
          <mxGeometry x="45" width="23" height="23" as="geometry" />
        </mxCell>
        <mxCell id="mG2dedWUTn2DNPqguD1p-61" value="" style="endArrow=none;html=1;rounded=0;fillColor=#d5e8d4;strokeColor=#33001A;strokeWidth=3;entryX=0;entryY=0.5;entryDx=0;entryDy=0;exitX=1;exitY=0.5;exitDx=0;exitDy=0;" edge="1" parent="mG2dedWUTn2DNPqguD1p-58" source="mG2dedWUTn2DNPqguD1p-59" target="mG2dedWUTn2DNPqguD1p-60">
          <mxGeometry width="50" height="50" relative="1" as="geometry">
            <mxPoint x="-81.88" y="10" as="sourcePoint" />
            <mxPoint x="48.120000000000005" as="targetPoint" />
          </mxGeometry>
        </mxCell>
        <mxCell id="mG2dedWUTn2DNPqguD1p-62" value="" style="ellipse;whiteSpace=wrap;html=1;aspect=fixed;fillColor=#d5e8d4;strokeColor=#82b366;strokeWidth=3;" vertex="1" parent="mG2dedWUTn2DNPqguD1p-58">
          <mxGeometry x="90" width="23" height="23" as="geometry" />
        </mxCell>
        <mxCell id="mG2dedWUTn2DNPqguD1p-63" value="" style="endArrow=none;html=1;rounded=0;fillColor=#d5e8d4;strokeColor=#33001A;strokeWidth=3;entryX=0;entryY=0.5;entryDx=0;entryDy=0;exitX=1;exitY=0.5;exitDx=0;exitDy=0;" edge="1" parent="mG2dedWUTn2DNPqguD1p-58" source="mG2dedWUTn2DNPqguD1p-60" target="mG2dedWUTn2DNPqguD1p-62">
          <mxGeometry width="50" height="50" relative="1" as="geometry">
            <mxPoint x="30" y="21.25" as="sourcePoint" />
            <mxPoint x="55" y="21.25" as="targetPoint" />
          </mxGeometry>
        </mxCell>
        <mxCell id="mG2dedWUTn2DNPqguD1p-64" value="" style="ellipse;whiteSpace=wrap;html=1;aspect=fixed;fillColor=#d5e8d4;strokeColor=#82b366;strokeWidth=3;" vertex="1" parent="mG2dedWUTn2DNPqguD1p-74">
          <mxGeometry x="140" width="23" height="23" as="geometry" />
        </mxCell>
        <mxCell id="mG2dedWUTn2DNPqguD1p-66" value="" style="endArrow=none;html=1;rounded=0;fillColor=#d5e8d4;strokeColor=#33001A;strokeWidth=3;entryX=1;entryY=0.5;entryDx=0;entryDy=0;exitX=0;exitY=0.5;exitDx=0;exitDy=0;" edge="1" parent="mG2dedWUTn2DNPqguD1p-74" source="mG2dedWUTn2DNPqguD1p-64" target="mG2dedWUTn2DNPqguD1p-62">
          <mxGeometry width="50" height="50" relative="1" as="geometry">
            <mxPoint x="78" y="21.5" as="sourcePoint" />
            <mxPoint x="100" y="21.5" as="targetPoint" />
          </mxGeometry>
        </mxCell>
        <mxCell id="mG2dedWUTn2DNPqguD1p-89" value="" style="group" vertex="1" connectable="0" parent="1">
          <mxGeometry x="450" y="142.25" width="163" height="23" as="geometry" />
        </mxCell>
        <mxCell id="mG2dedWUTn2DNPqguD1p-90" value="" style="group" vertex="1" connectable="0" parent="mG2dedWUTn2DNPqguD1p-89">
          <mxGeometry width="113" height="23" as="geometry" />
        </mxCell>
        <mxCell id="mG2dedWUTn2DNPqguD1p-91" value="" style="ellipse;whiteSpace=wrap;html=1;aspect=fixed;fillColor=#d5e8d4;strokeColor=#82b366;strokeWidth=3;" vertex="1" parent="mG2dedWUTn2DNPqguD1p-90">
          <mxGeometry width="23" height="23" as="geometry" />
        </mxCell>
        <mxCell id="mG2dedWUTn2DNPqguD1p-92" value="" style="ellipse;whiteSpace=wrap;html=1;aspect=fixed;fillColor=#d5e8d4;strokeColor=#82b366;strokeWidth=3;" vertex="1" parent="mG2dedWUTn2DNPqguD1p-90">
          <mxGeometry x="45" width="23" height="23" as="geometry" />
        </mxCell>
        <mxCell id="mG2dedWUTn2DNPqguD1p-93" value="" style="endArrow=none;html=1;rounded=0;fillColor=#d5e8d4;strokeColor=#33001A;strokeWidth=3;entryX=0;entryY=0.5;entryDx=0;entryDy=0;exitX=1;exitY=0.5;exitDx=0;exitDy=0;" edge="1" parent="mG2dedWUTn2DNPqguD1p-90" source="mG2dedWUTn2DNPqguD1p-91" target="mG2dedWUTn2DNPqguD1p-92">
          <mxGeometry width="50" height="50" relative="1" as="geometry">
            <mxPoint x="-81.88" y="10" as="sourcePoint" />
            <mxPoint x="48.120000000000005" as="targetPoint" />
          </mxGeometry>
        </mxCell>
        <mxCell id="mG2dedWUTn2DNPqguD1p-94" value="" style="ellipse;whiteSpace=wrap;html=1;aspect=fixed;fillColor=#d5e8d4;strokeColor=#82b366;strokeWidth=3;" vertex="1" parent="mG2dedWUTn2DNPqguD1p-90">
          <mxGeometry x="90" width="23" height="23" as="geometry" />
        </mxCell>
        <mxCell id="mG2dedWUTn2DNPqguD1p-95" value="" style="endArrow=none;html=1;rounded=0;fillColor=#d5e8d4;strokeColor=#33001A;strokeWidth=3;entryX=0;entryY=0.5;entryDx=0;entryDy=0;exitX=1;exitY=0.5;exitDx=0;exitDy=0;" edge="1" parent="mG2dedWUTn2DNPqguD1p-90" source="mG2dedWUTn2DNPqguD1p-92" target="mG2dedWUTn2DNPqguD1p-94">
          <mxGeometry width="50" height="50" relative="1" as="geometry">
            <mxPoint x="30" y="21.25" as="sourcePoint" />
            <mxPoint x="55" y="21.25" as="targetPoint" />
          </mxGeometry>
        </mxCell>
        <mxCell id="mG2dedWUTn2DNPqguD1p-96" value="" style="ellipse;whiteSpace=wrap;html=1;aspect=fixed;fillColor=#d5e8d4;strokeColor=#82b366;strokeWidth=3;" vertex="1" parent="mG2dedWUTn2DNPqguD1p-89">
          <mxGeometry x="140" width="23" height="23" as="geometry" />
        </mxCell>
        <mxCell id="mG2dedWUTn2DNPqguD1p-97" value="" style="endArrow=none;html=1;rounded=0;fillColor=#d5e8d4;strokeColor=#33001A;strokeWidth=3;entryX=1;entryY=0.5;entryDx=0;entryDy=0;exitX=0;exitY=0.5;exitDx=0;exitDy=0;" edge="1" parent="mG2dedWUTn2DNPqguD1p-89" source="mG2dedWUTn2DNPqguD1p-96" target="mG2dedWUTn2DNPqguD1p-94">
          <mxGeometry width="50" height="50" relative="1" as="geometry">
            <mxPoint x="78" y="21.5" as="sourcePoint" />
            <mxPoint x="100" y="21.5" as="targetPoint" />
          </mxGeometry>
        </mxCell>
      </root>
    </mxGraphModel>
  </diagram>
</mxfile>
